<?xml version="1.0" encoding="UTF-8" standalone="no"?>
<svg
   viewBox="0 0 640 512"
   version="1.1"
   id="svg4"
   sodipodi:docname="discord-brands.svg"
   inkscape:version="1.1.2 (1:1.1+202202050950+0a00cf5339)"
   xmlns:inkscape="http://www.inkscape.org/namespaces/inkscape"
   xmlns:sodipodi="http://sodipodi.sourceforge.net/DTD/sodipodi-0.dtd"
   xmlns="http://www.w3.org/2000/svg"
   xmlns:svg="http://www.w3.org/2000/svg">
  <defs
     id="defs8" />
  <sodipodi:namedview
     id="namedview6"
     pagecolor="#ffffff"
     bordercolor="#666666"
     borderopacity="1.0"
     inkscape:pageshadow="2"
     inkscape:pageopacity="0.0"
     inkscape:pagecheckerboard="0"
     showgrid="false"
     inkscape:zoom="1.6992188"
     inkscape:cx="320.14713"
     inkscape:cy="256.29425"
     inkscape:window-width="1920"
     inkscape:window-height="1023"
     inkscape:window-x="0"
     inkscape:window-y="26"
     inkscape:window-maximized="1"
     inkscape:current-layer="svg4" />
  <!--! Font Awesome Pro 6.0.0 by @fontawesome - https://fontawesome.com License - https://fontawesome.com/license (Commercial License) Copyright 2022 Fonticons, Inc. -->
  <path
     d="M524.531,69.836a1.5,1.5,0,0,0-.764-.7A485.065,485.065,0,0,0,404.081,32.03a1.816,1.816,0,0,0-1.923.91,337.461,337.461,0,0,0-14.9,30.6,447.848,447.848,0,0,0-134.426,0,309.541,309.541,0,0,0-15.135-30.6,1.89,1.89,0,0,0-1.924-.91A483.689,483.689,0,0,0,116.085,69.137a1.712,1.712,0,0,0-.788.676C39.068,183.651,18.186,294.69,28.43,404.354a2.016,2.016,0,0,0,.765,1.375A487.666,487.666,0,0,0,176.02,479.918a1.9,1.9,0,0,0,2.063-.676A348.2,348.2,0,0,0,208.12,430.4a1.86,1.86,0,0,0-1.019-2.588,321.173,321.173,0,0,1-45.868-21.853,1.885,1.885,0,0,1-.185-3.126c3.082-2.309,6.166-4.711,9.109-7.137a1.819,1.819,0,0,1,1.9-.256c96.229,43.917,200.41,43.917,295.5,0a1.812,1.812,0,0,1,1.924.233c2.944,2.426,6.027,4.851,9.132,7.16a1.884,1.884,0,0,1-.162,3.126,301.407,301.407,0,0,1-45.89,21.83,1.875,1.875,0,0,0-1,2.611,391.055,391.055,0,0,0,30.014,48.815,1.864,1.864,0,0,0,2.063.7A486.048,486.048,0,0,0,610.7,405.729a1.882,1.882,0,0,0,.765-1.352C623.729,277.594,590.933,167.465,524.531,69.836ZM222.491,337.58c-28.972,0-52.844-26.587-52.844-59.239S193.056,219.1,222.491,219.1c29.665,0,53.306,26.82,52.843,59.239C275.334,310.993,251.924,337.58,222.491,337.58Zm195.38,0c-28.971,0-52.843-26.587-52.843-59.239S388.437,219.1,417.871,219.1c29.667,0,53.307,26.82,52.844,59.239C470.715,310.993,447.538,337.58,417.871,337.58Z"
     id="path2" />
  <path
     style="fill:#5865f2;stroke:#28a9ea;stroke-width:0.588506;fill-opacity:1"
     d="M 162.13333,474.99828 C 115.67592,458.88227 76.362731,438.70793 36.619079,410.58817 c -4.599768,-3.25446 -7.619203,-5.79271 -7.777332,-6.5379 -0.550165,-2.59266 -1.478459,-15.9987 -2.121883,-30.64337 C 23.7233,305.2035 35.430696,236.6229 61.02826,172.43218 73.575656,140.96722 93.284752,103.65684 113.31919,73.442612 l 2.61644,-3.945894 10.29885,-4.405581 c 33.39281,-14.284575 64.84779,-24.065442 98.7455,-30.70472 9.80433,-1.920299 11.46296,-2.10922 12.16322,-1.385421 1.11888,1.15648 10.31083,19.105169 13.04751,25.477259 l 2.24123,5.218485 2.96104,-0.328744 c 1.62857,-0.18081 7.46311,-0.863533 12.96564,-1.517164 19.42975,-2.308008 27.12032,-2.700399 52.37701,-2.672404 25.77726,0.02857 34.40207,0.528434 56.24934,3.259992 5.62961,0.703869 10.26242,1.032833 10.5251,0.747363 0.25808,-0.280457 2.31975,-4.521977 4.5815,-9.425602 6.0654,-13.150228 10.6139,-21.393066 11.80253,-21.388695 2.16368,0.008 25.18132,4.910433 36.3082,7.733205 25.81683,6.549458 50.34309,14.90734 74.2766,25.311437 l 9.54098,4.147542 5.34612,8.190274 c 51.67942,79.173136 78.71931,159.650766 83.61739,248.866746 1.08093,19.68878 0.30106,56.50493 -1.58119,74.6436 l -0.38691,3.72865 -4.48696,3.32333 c -2.46782,1.82783 -9.30588,6.55358 -15.19567,10.50167 -28.48862,19.09665 -59.02366,35.09931 -91.69128,48.05314 -14.01715,5.55828 -35.90053,12.9993 -36.99483,12.57938 -1.92326,-0.73803 -20.30706,-29.60997 -27.73819,-43.56311 -2.87807,-5.40405 -3.27117,-6.49543 -2.58158,-7.16736 0.4474,-0.43595 3.54935,-1.87718 6.89323,-3.20275 13.89654,-5.50878 39.59614,-18.39208 40.26894,-20.18695 0.54924,-1.46526 -0.54127,-2.76365 -5.5153,-6.56659 -2.78851,-2.13199 -5.2309,-3.87634 -5.42754,-3.87634 -0.19663,0 -4.93305,1.95573 -10.52538,4.34608 -34.75028,14.85342 -69.82954,23.83358 -107.56556,27.5364 -10.67188,1.04717 -50.64281,1.0535 -60.61609,0.01 -39.56073,-4.14082 -73.37617,-12.76898 -108.28506,-27.6294 -11.68139,-4.97267 -9.97828,-5.00724 -16.86043,0.34231 -4.43186,3.44493 -5.08962,4.25789 -4.56055,5.63662 0.73729,1.92136 26.13682,14.73865 40.54742,20.46133 3.23678,1.28538 6.25109,2.69372 6.69846,3.12963 0.68947,0.67182 0.25176,1.85356 -2.87272,7.75587 -9.00873,17.01794 -25.75451,42.7423 -27.98455,42.98901 -0.63082,0.0698 -7.10556,-1.94015 -14.38832,-4.46653 z M 235.6738,336.05156 c 10.01321,-2.88433 20.37585,-10.02035 26.9415,-18.55271 4.02317,-5.22828 9.16844,-15.67765 10.72187,-21.77471 4.12536,-16.19165 2.7311,-31.92699 -4.06738,-45.90345 -9.85449,-20.25909 -28.24415,-31.74845 -49.16864,-30.71924 -7.54006,0.37088 -11.73888,1.38545 -18.23333,4.40578 -17.80742,8.28157 -29.83321,26.39023 -32.13697,48.39246 -2.05031,19.5816 4.83813,38.63655 18.73082,51.81361 7.55235,7.1633 16.42428,11.81522 25.7303,13.49143 4.98301,0.89755 16.51093,0.27872 21.48183,-1.15317 z m 191.75331,0.82085 c 31.53459,-6.46447 50.35072,-41.36173 41.27502,-76.55054 -1.52316,-5.9057 -6.08979,-15.30584 -9.81885,-20.21153 -10.96941,-14.4306 -26.29592,-21.8501 -43.39822,-21.00889 -7.70959,0.37922 -11.84061,1.39997 -18.50013,4.57129 -17.87319,8.51137 -29.56407,26.20238 -31.87017,48.22695 -2.05032,19.5816 4.83813,38.63655 18.73082,51.81361 7.57997,7.18952 16.65095,11.93268 25.7303,13.45424 4.92311,0.82503 13.04166,0.69081 17.85123,-0.29513 z"
     id="path862" />
</svg>
