<?xml version="1.0" encoding="UTF-8" standalone="no"?>
<svg
   viewBox="0 0 448 512"
   version="1.1"
   id="svg4"
   sodipodi:docname="instagram-brands.svg"
   inkscape:version="1.1.2 (1:1.1+202202050950+0a00cf5339)"
   xmlns:inkscape="http://www.inkscape.org/namespaces/inkscape"
   xmlns:sodipodi="http://sodipodi.sourceforge.net/DTD/sodipodi-0.dtd"
   xmlns="http://www.w3.org/2000/svg"
   xmlns:svg="http://www.w3.org/2000/svg">
  <defs
     id="defs8" />
  <sodipodi:namedview
     id="namedview6"
     pagecolor="#ffffff"
     bordercolor="#666666"
     borderopacity="1.0"
     inkscape:pageshadow="2"
     inkscape:pageopacity="0.0"
     inkscape:pagecheckerboard="0"
     showgrid="false"
     inkscape:zoom="1.6992188"
     inkscape:cx="224.22069"
     inkscape:cy="256.29425"
     inkscape:window-width="1920"
     inkscape:window-height="1023"
     inkscape:window-x="0"
     inkscape:window-y="26"
     inkscape:window-maximized="1"
     inkscape:current-layer="svg4" />
  <!--! Font Awesome Pro 6.0.0 by @fontawesome - https://fontawesome.com License - https://fontawesome.com/license (Commercial License) Copyright 2022 Fonticons, Inc. -->
  <path
     d="M224.1 141c-63.6 0-114.9 51.3-114.9 114.9s51.3 114.9 114.9 114.9S339 319.5 339 255.9 287.7 141 224.1 141zm0 189.6c-41.1 0-74.7-33.5-74.7-74.7s33.5-74.7 74.7-74.7 74.7 33.5 74.7 74.7-33.6 74.7-74.7 74.7zm146.4-194.3c0 14.9-12 26.8-26.8 26.8-14.9 0-26.8-12-26.8-26.8s12-26.8 26.8-26.8 26.8 12 26.8 26.8zm76.1 27.2c-1.7-35.9-9.9-67.7-36.2-93.9-26.2-26.2-58-34.4-93.9-36.2-37-2.1-147.9-2.1-184.9 0-35.8 1.7-67.6 9.9-93.9 36.1s-34.4 58-36.2 93.9c-2.1 37-2.1 147.9 0 184.9 1.7 35.9 9.9 67.7 36.2 93.9s58 34.4 93.9 36.2c37 2.1 147.9 2.1 184.9 0 35.9-1.7 67.7-9.9 93.9-36.2 26.2-26.2 34.4-58 36.2-93.9 2.1-37 2.1-147.8 0-184.8zM398.8 388c-7.8 19.6-22.9 34.7-42.6 42.6-29.5 11.7-99.5 9-132.1 9s-102.7 2.6-132.1-9c-19.6-7.8-34.7-22.9-42.6-42.6-11.7-29.5-9-99.5-9-132.1s-2.6-102.7 9-132.1c7.8-19.6 22.9-34.7 42.6-42.6 29.5-11.7 99.5-9 132.1-9s102.7-2.6 132.1 9c19.6 7.8 34.7 22.9 42.6 42.6 11.7 29.5 9 99.5 9 132.1s2.7 102.7-9 132.1z"
     id="path2" />
  <path
     style="fill:#c12b91;stroke:#28a9ea;stroke-width:0.588506;fill-opacity:1"
     d="M 156.08297,479.04021 C 126.43923,478.25285 110.20044,476.72837 96.22069,473.42038 78.66767,469.26685 63.258347,462.29043 50.317241,452.63802 44.696711,448.44583 34.172963,438.2645 29.555389,432.55172 13.115639,412.21277 4.5580254,387.45029 2.0990273,353.10345 0.74898926,334.24636 0.15524405,291.47393 0.48966797,237.16782 0.95468597,161.65492 1.8831917,145.89439 7.0798407,125.30571 18.142622,81.475924 49.142962,50.353621 92.899581,39.148342 116.12075,33.201818 141.4453,32.064471 240.11034,32.536981 c 64.36967,0.308268 77.2433,0.691281 94.143,2.800918 32.90305,4.107384 57.76983,15.740162 77.4508,36.2318 20.67415,21.525725 31.02932,47.093891 34.0567,84.090071 1.27327,15.56004 1.84982,46.73304 1.85038,100.04598 10e-4,95.77712 -1.33962,115.61358 -9.49533,140.49854 -9.81352,29.94334 -31.71414,54.94945 -59.70669,68.1731 -18.6551,8.81263 -36.64359,12.48572 -69.14943,14.11965 -15.39503,0.77385 -129.28636,1.17771 -153.1768,0.54317 z m 151.70554,-39.95367 c 29.2257,-2.24826 43.16063,-5.13719 55.48631,-11.50315 9.84454,-5.0845 17.48115,-11.24259 23.94909,-19.31231 13.49094,-16.83197 18.1397,-33.97482 20.3065,-74.88257 0.76129,-14.37259 0.76557,-141.47654 0.005,-155.07127 -1.83085,-32.73482 -4.77361,-48.15118 -11.79058,-61.7678 -7.23479,-14.03915 -19.41888,-25.97915 -33.8141,-33.136615 -8.38913,-4.171175 -18.25168,-6.72116 -33.40524,-8.637011 -20.01792,-2.530848 -26.04843,-2.68386 -105.77636,-2.68386 -68.15684,0 -77.46028,0.110387 -88.02716,1.044462 -24.95181,2.205648 -37.279884,4.82042 -48.109243,10.20392 -23.461076,11.662988 -37.517783,31.059854 -42.17354,58.195294 -3.692301,21.52009 -4.231167,33.98383 -4.478121,103.57701 -0.299315,84.34908 0.541623,105.40592 5.133507,128.54128 3.111693,15.67769 9.214726,27.78405 19.465832,38.61363 9.000624,9.50854 21.329461,17.16813 33.131249,20.58359 11.432226,3.30852 31.817256,5.81308 54.731036,6.72441 18.07565,0.71891 144.85047,0.31989 155.36552,-0.48901 z"
     id="path862" />
  <path
     style="fill:#c12b91;fill-opacity:1;stroke:#28a9ea;stroke-width:0.588506"
     d="m 215.68008,370.12809 c -16.77367,-1.13938 -34.8905,-6.79089 -49.58072,-15.4666 -26.47127,-15.63332 -45.67051,-41.29803 -53.11492,-71.00172 -3.28821,-13.12016 -4.18864,-30.14873 -2.30741,-43.63661 6.37604,-45.71425 39.6324,-83.1096 84.41263,-94.91836 35.03111,-9.23788 72.81652,-1.07574 101.22298,21.86548 5.18231,4.18525 14.48882,13.68359 18.32557,18.70328 17.9694,23.50971 26.35882,52.72753 23.42805,81.59282 -5.6774,55.91712 -50.42705,99.06309 -106.73366,102.90868 -4.55891,0.31136 -8.42134,0.53171 -8.58317,0.48967 -0.16184,-0.042 -3.34305,-0.28352 -7.06935,-0.53664 z m 20.60498,-40.29863 c 23.61249,-3.82657 43.90958,-18.76521 54.73462,-40.28463 14.83383,-29.4886 8.71919,-65.08983 -15.06277,-87.69991 -11.04247,-10.49833 -23.80217,-16.99277 -38.78909,-19.7429 -6.83992,-1.25514 -19.4062,-1.24138 -26.48018,0.029 -32.08414,5.7618 -56.61224,31.65209 -60.97471,64.36098 -0.83654,6.27221 -0.35367,18.74716 0.96029,24.80916 3.14514,14.51018 9.86619,26.76392 20.52717,37.4249 11.41135,11.41135 24.46613,18.20393 40.66168,21.15684 5.76268,1.05071 17.77189,1.02443 24.42299,-0.0534 z"
     id="path938" />
  <path
     style="fill:#c12b91;fill-opacity:1;stroke:#28a9ea;stroke-width:0.588506"
     d="m 338.33302,162.14173 c -10.78647,-2.34671 -19.48423,-11.64145 -20.70908,-22.13044 -1.19585,-10.24067 2.56529,-19.09432 10.63521,-25.03506 4.45721,-3.2812 9.69615,-4.92566 15.69232,-4.92566 23.19775,0 34.83651,28.25791 18.40607,44.68835 -4.01276,4.01276 -8.15571,6.27756 -13.59075,7.42958 -4.67435,0.99077 -5.76965,0.98796 -10.43377,-0.0268 z"
     id="path977" />
</svg>
