<?xml version="1.0" encoding="UTF-8" standalone="no"?>
<svg
   viewBox="0 0 512 512"
   version="1.1"
   id="svg4"
   sodipodi:docname="sun-solid.svg"
   inkscape:version="1.1.2 (1:1.1+202202050950+0a00cf5339)"
   xmlns:inkscape="http://www.inkscape.org/namespaces/inkscape"
   xmlns:sodipodi="http://sodipodi.sourceforge.net/DTD/sodipodi-0.dtd"
   xmlns="http://www.w3.org/2000/svg"
   xmlns:svg="http://www.w3.org/2000/svg">
  <defs
     id="defs8" />
  <sodipodi:namedview
     id="namedview6"
     pagecolor="#ffffff"
     bordercolor="#666666"
     borderopacity="1.0"
     inkscape:pageshadow="2"
     inkscape:pageopacity="0.0"
     inkscape:pagecheckerboard="0"
     showgrid="false"
     inkscape:zoom="1.6992188"
     inkscape:cx="256"
     inkscape:cy="256.29425"
     inkscape:window-width="1920"
     inkscape:window-height="1023"
     inkscape:window-x="0"
     inkscape:window-y="26"
     inkscape:window-maximized="1"
     inkscape:current-layer="svg4" />
  <!--! Font Awesome Pro 6.0.0 by @fontawesome - https://fontawesome.com License - https://fontawesome.com/license (Commercial License) Copyright 2022 Fonticons, Inc. -->
  <path
     d="m 256,159.1 c -53.02,0 -95.1,42.98 -95.1,95.1 0,52.12 41.2,96.9 95.1,96.9 53.9,0 95.1,-42.98 95.1,-95.1 0,-52.12 -42.1,-96.9 -95.1,-96.9 z M 509.3,347 446.1,255.1 509.25,164.09 c 6.332,-9.125 1.104,-21.74 -9.826,-23.72 l -109,-19.7 -19.7,-109 C 368.749,0.74 356.134,-4.49 347.004,1.846 L 256,65.89 164.1,2.736 C 154.975,-3.596 142.36,1.629 140.38,12.56 L 121.6,121.6 12.56,141.3 C 1.633,143.2 -3.596,155.9 2.736,164.1 L 65.89,256 2.74,347.01 c -6.332,9.125 -1.105,21.74 9.824,23.72 l 109,19.7 19.7,109 c 1.975,10.93 14.59,16.16 23.72,9.824 L 256,446.1 l 91.01,63.15 c 9.127,6.334 21.75,1.107 23.72,-9.822 l 19.7,-109 109,-19.7 C 510.4,368.8 515.6,356.1 509.3,347 Z M 256,383.1 c -70.69,0 -127.1,-57.31 -127.1,-127.1 0,-70.69 57.31,-127.1 127.1,-127.1 69.79,0 127.1,57.3 127.1,127.1 0,70.7 -56.4,127.1 -127.1,127.1 z"
     id="path2"
     style="fill:#ffcc00" />
</svg>
