<?xml version="1.0" encoding="UTF-8" standalone="no"?>
<svg
   viewBox="0 0 496 512"
   version="1.1"
   id="svg4"
   sodipodi:docname="telegram-brands.svg"
   inkscape:version="1.1.2 (1:1.1+202202050950+0a00cf5339)"
   xmlns:inkscape="http://www.inkscape.org/namespaces/inkscape"
   xmlns:sodipodi="http://sodipodi.sourceforge.net/DTD/sodipodi-0.dtd"
   xmlns="http://www.w3.org/2000/svg"
   xmlns:svg="http://www.w3.org/2000/svg">
  <defs
     id="defs8" />
  <sodipodi:namedview
     id="namedview6"
     pagecolor="#ffffff"
     bordercolor="#666666"
     borderopacity="1.0"
     inkscape:pageshadow="2"
     inkscape:pageopacity="0.0"
     inkscape:pagecheckerboard="0"
     showgrid="false"
     inkscape:zoom="1.6992188"
     inkscape:cx="224.8092"
     inkscape:cy="256.29425"
     inkscape:window-width="1920"
     inkscape:window-height="1023"
     inkscape:window-x="0"
     inkscape:window-y="26"
     inkscape:window-maximized="1"
     inkscape:current-layer="svg4" />
  <!--! Font Awesome Pro 6.0.0 by @fontawesome - https://fontawesome.com License - https://fontawesome.com/license (Commercial License) Copyright 2022 Fonticons, Inc. -->
  <path
     d="M248,8C111.033,8,0,119.033,0,256S111.033,504,248,504,496,392.967,496,256,384.967,8,248,8ZM362.952,176.66c-3.732,39.215-19.881,134.378-28.1,178.3-3.476,18.584-10.322,24.816-16.948,25.425-14.4,1.326-25.338-9.517-39.287-18.661-21.827-14.308-34.158-23.215-55.346-37.177-24.485-16.135-8.612-25,5.342-39.5,3.652-3.793,67.107-61.51,68.335-66.746.153-.655.3-3.1-1.154-4.384s-3.59-.849-5.135-.5q-3.283.746-104.608,69.142-14.845,10.194-26.894,9.934c-8.855-.191-25.888-5.006-38.551-9.123-15.531-5.048-27.875-7.717-26.8-16.291q.84-6.7,18.45-13.7,108.446-47.248,144.628-62.3c68.872-28.647,83.183-33.623,92.511-33.789,2.052-.034,6.639.474,9.61,2.885a10.452,10.452,0,0,1,3.53,6.716A43.765,43.765,0,0,1,362.952,176.66Z"
     id="path2" />
  <path
     style="fill:#28a9ea;stroke-width:0.588506;stroke:#28a9ea;stroke-opacity:1;fill-opacity:1"
     d="m 235.10805,503.41562 c -1.45656,-0.12499 -6.09104,-0.51681 -10.29885,-0.87074 C 197.15745,500.2191 167.22216,491.90958 141.01872,479.2861 37.906951,429.61209 -17.657353,317.07824 5.6187021,205.06174 18.581536,142.67783 56.534367,86.34255 109.64883,50.644618 143.47188,27.912339 180.2242,14.4976 222.0436,9.6200976 232.75661,8.3706125 260.14715,8.1924811 271.0069,9.3016703 328.68087,15.192356 379.86098,38.916108 420.41728,78.558561 c 24.77396,24.215719 42.19737,49.499259 55.43523,80.443419 19.13524,44.72956 24.58965,94.98703 15.509,142.90147 -6.54088,34.51324 -20.47323,67.57266 -40.42663,95.92644 -9.62164,13.67234 -17.76117,23.15785 -30.8119,35.90704 -31.66802,30.93633 -70.73725,52.51357 -114.00385,62.9623 -19.08527,4.60902 -33.59864,6.40888 -54.23867,6.72638 -7.76828,0.11949 -15.31586,0.115 -16.77241,-0.01 z m 85.40552,-123.25116 c 5.37634,-1.49339 10.49669,-8.85788 13.14012,-18.89915 3.38377,-12.85351 18.73848,-103.96369 25.27796,-149.99175 4.91329,-34.58215 5.34206,-42.63292 2.56805,-48.21906 -2.76561,-5.56921 -10.45151,-7.32386 -20.78033,-4.74405 -10.58397,2.64354 -36.60057,12.69926 -82.6596,31.94891 -40.80438,17.05355 -147.80717,63.33172 -154.33553,66.74934 -8.054662,4.21664 -11.303038,8.52299 -9.917489,13.14753 1.357747,4.53176 5.667416,6.81634 23.629629,12.5262 23.16358,7.36327 33.59353,9.79282 42.07216,9.80026 10.49713,0.009 16.30833,-2.56959 36.49043,-16.19307 26.51968,-17.90152 78.07884,-52.1859 86.47754,-57.50343 7.27947,-4.6089 8.50398,-5.19235 10.57436,-5.03843 1.82893,0.13597 2.53387,0.51825 3.22011,1.7462 0.76551,1.36977 0.77058,1.78638 0.0394,3.23678 -1.28517,2.54926 -23.70483,24.69229 -48.54943,47.9504 -25.99848,24.33829 -34.28038,32.70299 -36.07737,36.438 -2.60502,5.41451 -1.32425,10.59006 3.91029,15.80129 1.50798,1.50128 14.92386,10.91039 29.81306,20.90915 14.88919,9.99875 32.79669,22.10523 39.79443,26.90328 12.9327,8.8674 18.40805,11.91434 23.73571,13.20854 3.71108,0.9015 8.78231,0.99921 11.57653,0.22306 z"
     id="path991" />
</svg>
